HIERARCHY
ROOT hip
{
  OFFSET 0.0 0.0 0.0
  CHANNELS 6 Xposition Yposition Zposition Zrotation Yrotation Xrotation
  JOINT abdomen
  {
    OFFSET 0.0 20.6881 -0.73152
    CHANNELS 3 Zrotation Xrotation Yrotation
    JOINT chest
    {
      OFFSET 0.0 11.7043 -0.48768
      CHANNELS 3 Zrotation Xrotation Yrotation
      JOINT neck
      {
        OFFSET 0.0 22.1894 -2.19456
        CHANNELS 3 Zrotation Xrotation Yrotation
        JOINT head
        {
          OFFSET -0.24384 7.07133 1.2192
          CHANNELS 3 Zrotation Xrotation Yrotation
          JOINT leftEye
          {
            OFFSET 4.14528 8.04674 8.04672
            CHANNELS 3 Zrotation Xrotation Yrotation
            End Site
            {
              OFFSET 1.0 0.0 0.0
            }
          }
          JOINT rightEye
          {
            OFFSET -3.6576 8.04674 8.04672
            CHANNELS 3 Zrotation Xrotation Yrotation
            End Site
            {
              OFFSET 1.0 0.0 0.0
            }
          }
        }
      }
      JOINT rCollar
      {
        OFFSET -2.68224 19.2634 -4.8768
        CHANNELS 3 Zrotation Xrotation Yrotation
        JOINT rShldr
        {
          OFFSET -8.77824 -1.95073 1.46304
          CHANNELS 3 Zrotation Xrotation Yrotation
          JOINT rForeArm
          {
            OFFSET -28.1742 -1.7115 0.48768
            CHANNELS 3 Zrotation Xrotation Yrotation
            JOINT rHand
            {
              OFFSET -22.5879 0.773209 7.07136
              CHANNELS 3 Zrotation Xrotation Yrotation
              JOINT rThumb1
              {
                OFFSET -1.2192 -0.487915 3.41376
                CHANNELS 3 Zrotation Xrotation Yrotation
                JOINT rThumb2
                {
                  OFFSET -3.37035 -0.52449 3.41376
                  CHANNELS 3 Zrotation Xrotation Yrotation
                  End Site
                  {
                    OFFSET -1.78271 -1.18214 1.43049
                  }
                }
              }
              JOINT rIndex1
              {
                OFFSET -7.75947 0.938293 5.60832
                CHANNELS 3 Zrotation Xrotation Yrotation
                JOINT rIndex2
                {
                  OFFSET -2.54057 -0.884171 1.56538
                  CHANNELS 3 Zrotation Xrotation Yrotation
                  End Site
                  {
                    OFFSET -1.62519 -0.234802 1.16502
                  }
                }
              }
              JOINT rMid1
              {
                OFFSET -8.24714 1.18213 3.41376
                CHANNELS 3 Zrotation Xrotation Yrotation
                JOINT rMid2
                {
                  OFFSET -3.10165 -0.590103 1.0647
                  CHANNELS 3 Zrotation Xrotation Yrotation
                  End Site
                  {
                    OFFSET -2.48547 -0.328903 0.83742
                  }
                }
              }
              JOINT rRing1
              {
                OFFSET -8.82822 0.546677 1.51678
                CHANNELS 3 Zrotation Xrotation Yrotation
                JOINT rRing2
                {
                  OFFSET -2.60934 -0.819778 -0.0198488
                  CHANNELS 3 Zrotation Xrotation Yrotation
                  End Site
                  {
                    OFFSET -2.33842 -0.294052 0.168128
                  }
                }
              }
              JOINT rPinky1
              {
                OFFSET -8.27202 -0.0477905 -0.4584
                CHANNELS 3 Zrotation Xrotation Yrotation
                JOINT rPinky2
                {
                  OFFSET -1.82734 -0.647385 -0.700984
                  CHANNELS 3 Zrotation Xrotation Yrotation
                  End Site
                  {
                    OFFSET -1.69225 -0.51767 -0.607171
                  }
                }
              }
            }
          }
        }
      }
      JOINT lCollar
      {
        OFFSET 2.68224 19.2634 -4.8768
        CHANNELS 3 Zrotation Xrotation Yrotation
        JOINT lShldr
        {
          OFFSET 8.77824 -1.95073 1.46304
          CHANNELS 3 Zrotation Xrotation Yrotation
          JOINT lForeArm
          {
            OFFSET 28.1742 -1.7115 0.48768
            CHANNELS 3 Zrotation Xrotation Yrotation
            JOINT lHand
            {
              OFFSET 22.5879 0.773209 7.07136
              CHANNELS 3 Zrotation Xrotation Yrotation
              JOINT lThumb1
              {
                OFFSET 1.2192 -0.487915 3.41376
                CHANNELS 3 Zrotation Xrotation Yrotation
                JOINT lThumb2
                {
                  OFFSET 3.37035 -0.52449 3.41376
                  CHANNELS 3 Zrotation Xrotation Yrotation
                  End Site
                  {
                    OFFSET 1.78271 -1.18214 1.43049
                  }
                }
              }
              JOINT lIndex1
              {
                OFFSET 7.75947 0.938293 5.60832
                CHANNELS 3 Zrotation Xrotation Yrotation
                JOINT lIndex2
                {
                  OFFSET 2.54057 -0.884171 1.56538
                  CHANNELS 3 Zrotation Xrotation Yrotation
                  End Site
                  {
                    OFFSET 1.62519 -0.234802 1.16502
                  }
                }
              }
              JOINT lMid1
              {
                OFFSET 8.24714 1.18213 3.41376
                CHANNELS 3 Zrotation Xrotation Yrotation
                JOINT lMid2
                {
                  OFFSET 3.10165 -0.590103 1.0647
                  CHANNELS 3 Zrotation Xrotation Yrotation
                  End Site
                  {
                    OFFSET 2.48547 -0.328903 0.83742
                  }
                }
              }
              JOINT lRing1
              {
                OFFSET 8.82822 0.546677 1.51678
                CHANNELS 3 Zrotation Xrotation Yrotation
                JOINT lRing2
                {
                  OFFSET 2.60934 -0.819778 -0.0198488
                  CHANNELS 3 Zrotation Xrotation Yrotation
                  End Site
                  {
                    OFFSET 2.33842 -0.294052 0.168128
                  }
                }
              }
              JOINT lPinky1
              {
                OFFSET 8.27202 -0.0477905 -0.4584
                CHANNELS 3 Zrotation Xrotation Yrotation
                JOINT lPinky2
                {
                  OFFSET 1.82734 -0.647385 -0.700984
                  CHANNELS 3 Zrotation Xrotation Yrotation
                  End Site
                  {
                    OFFSET 1.69225 -0.51767 -0.607171
                  }
                }
              }
            }
          }
        }
      }
    }
  }
  JOINT rButtock
  {
    OFFSET -8.77824 4.35084 1.2192
    CHANNELS 3 Zrotation Xrotation Yrotation
    JOINT rThigh
    {
      OFFSET 0.0 -1.70687 -2.19456
      CHANNELS 3 Zrotation Xrotation Yrotation
      JOINT rShin
      {
        OFFSET 0.0 -36.8199 0.73152
        CHANNELS 3 Zrotation Xrotation Yrotation
        JOINT rFoot
        {
          OFFSET 0.73152 -45.1104 -5.12064
          CHANNELS 3 Zrotation Xrotation Yrotation
          End Site
          {
            OFFSET -1.1221 -3.69964 12.103
          }
        }
      }
    }
  }
  JOINT lButtock
  {
    OFFSET 8.77824 4.35084 1.2192
    CHANNELS 3 Zrotation Xrotation Yrotation
    JOINT lThigh
    {
      OFFSET 0.0 -1.70687 -2.19456
      CHANNELS 3 Zrotation Xrotation Yrotation
      JOINT lShin
      {
        OFFSET 0.0 -36.8199 0.73152
        CHANNELS 3 Zrotation Xrotation Yrotation
        JOINT lFoot
        {
          OFFSET -0.73152 -45.1104 -5.12064
          CHANNELS 3 Zrotation Xrotation Yrotation
          End Site
          {
            OFFSET 1.1221 -3.69964 12.103
          }
        }
      }
    }
  }
}
MOTION
Frames: 4
Frame Time: 0.00833333
-69.4804 95.2389 27.7188 -7.8415 82.875 4.6459 3.86107 2.38354 1.17144 -0.51234 -16.9277 0.417062 2.14058 7.30879 -1.64912 -0.800034 29.0329 0.808591 -0.0 0.0 0.0 -0.0 0.0 0.0 4.31407e-14 -5.02787e-13 -1.08116e-14 55.2915 52.9204 6.41246 -19.8753 -12.8875 38.3237 -0.000476065 0.398666 0.0559623 -1.25384e-10 -5.54937e-10 -4.55304e-10 -2.12961e-10 -9.57553e-10 -7.8619e-10 -1.25383e-10 -5.54937e-10 -4.5531e-10 7.73091 5.47488 0.417314 -1.25386e-10 -5.54935e-10 -4.55305e-10 2.90554 0.965183 0.102902 -1.2538e-10 -5.54934e-10 -4.55305e-10 10.2786 0.731801 0.0259123 -1.25388e-10 -5.5493e-10 -4.55297e-10 2.22167 -0.733487 -0.20892 4.29316e-14 -5.02782e-13 -1.10636e-14 -43.73 34.3661 -20.501 23.6872 -18.5677 -48.3302 0.0678494 7.44703 -1.0525 -1.77484e-09 -8.57313e-10 3.47522e-10 -3.06691e-09 -1.48411e-09 6.12621e-10 -1.77485e-09 -8.57305e-10 3.47533e-10 -7.73091 5.47488 -0.417314 -1.77484e-09 -8.57308e-10 3.47525e-10 -2.90554 0.965183 -0.102902 -1.77485e-09 -8.57309e-10 3.47521e-10 -10.2786 0.731801 -0.0259123 -1.77484e-09 -8.57311e-10 3.47514e-10 -2.22167 -0.733487 0.20892 -2.03217e-16 0.0 -3.88251e-19 13.2645 -17.4244 6.40327 0.00170661 22.8231 0.512213 4.64628 9.89297 -26.1349 2.03217e-16 0.0 3.88251e-19 -6.24235 -13.2412 -8.38941 0.0544334 20.2131 -0.329519 1.80248 -21.4995 6.93327
-68.906 95.1033 27.3977 -3.2193 83.0821 9.9096 3.17129 3.50007 1.11922 -0.37079 -17.0624 0.3876 2.2072 6.21261 -1.62957 -0.914014 29.6713 0.76916 -0.0 0.0 0.0 -0.0 0.0 0.0 4.46126e-14 -2.97186e-13 -1.19122e-13 62.0293 52.9172 0.0127303 -19.1343 -11.9604 36.6176 -0.000586827 0.691702 0.0972171 -2.40871e-10 -2.1062e-10 9.06299e-11 -4.13085e-10 -3.62688e-10 1.59387e-10 -2.40868e-10 -2.10621e-10 9.06235e-11 7.73091 5.47488 0.417314 -2.40872e-10 -2.10619e-10 9.06299e-11 2.90554 0.965183 0.102902 -2.40866e-10 -2.10617e-10 9.06283e-11 10.2786 0.731801 0.0259123 -2.40875e-10 -2.10612e-10 9.06363e-11 2.22167 -0.733487 -0.20892 4.43961e-14 -2.97182e-13 -1.1937e-13 -47.4224 37.5032 -17.7951 22.8536 -17.0949 -46.1635 0.083123 8.19698 -1.16001 -1.7645e-09 -1.06534e-09 7.70152e-10 -3.04716e-09 -1.8421e-09 1.34283e-09 -1.76451e-09 -1.06534e-09 7.70162e-10 -7.73091 5.47488 -0.417314 -1.7645e-09 -1.06534e-09 7.70155e-10 -2.90554 0.965183 -0.102902 -1.76451e-09 -1.06534e-09 7.70152e-10 -10.2786 0.731801 -0.0259123 -1.7645e-09 -1.06534e-09 7.70146e-10 -2.22167 -0.733487 0.20892 -2.03217e-16 0.0 -3.88251e-19 13.1357 -19.5255 9.21303 0.0240306 18.7557 0.436336 2.7528 5.69926 -26.2006 2.03217e-16 0.0 3.88251e-19 -6.99901 -15.1806 -11.2472 0.07157 16.1797 -0.161746 -0.543509 -26.2963 1.29066
-68.3351 94.7453 27.0302 1.2463 83.2902 15.307 2.67221 3.74431 0.921404 -0.48225 -16.9864 0.306618 2.21264 5.15958 -1.63295 -0.969709 30.231 0.668013 -0.0 0.0 0.0 -0.0 0.0 0.0 3.57942e-14 1.85605e-13 -1.87469e-13 68.5816 52.5209 -6.8375 -18.7432 -11.461 35.8692 0.000904897 0.318883 0.0448198 -5.02277e-10 -1.49621e-10 4.21372e-10 -8.64446e-10 -2.57862e-10 7.32939e-10 -5.02273e-10 -1.49622e-10 4.21363e-10 7.73091 5.47488 0.417314 -5.02278e-10 -1.49621e-10 4.21373e-10 2.90554 0.965183 0.102902 -5.02272e-10 -1.49619e-10 4.2137e-10 10.2786 0.731801 0.0259123 -5.0228e-10 -1.49614e-10 4.21376e-10 2.22167 -0.733487 -0.20892 3.55878e-14 1.85607e-13 -1.87718e-13 -51.6742 39.6274 -14.2341 22.2299 -16.0741 -44.6143 0.0965332 8.77705 -1.24353 -1.75013e-09 -1.27964e-09 9.8464e-10 -3.02116e-09 -2.21107e-09 1.7128e-09 -1.75013e-09 -1.27963e-09 9.84647e-10 -7.73091 5.47488 -0.417314 -1.75013e-09 -1.27964e-09 9.84642e-10 -2.90554 0.965183 -0.102902 -1.75014e-09 -1.27964e-09 9.8464e-10 -10.2786 0.731801 -0.0259123 -1.75013e-09 -1.27964e-09 9.84633e-10 -2.22167 -0.733487 0.20892 -2.03217e-16 0.0 -3.88251e-19 12.4376 -21.4303 13.5558 0.0526362 13.4745 0.291886 -0.181381 -0.510888 -27.8707 2.03217e-16 0.0 3.88251e-19 -7.50499 -17.8468 -16.1071 0.0678033 12.8203 -0.109067 -3.01774 -32.9461 -3.62435
-67.6801 94.1554 26.6382 5.4429 83.5008 20.6375 2.2683 3.38486 0.637039 -0.747271 -16.7893 0.195213 2.15303 4.04031 -1.65297 -0.982344 30.7807 0.514436 -0.0 0.0 0.0 -0.0 0.0 0.0 2.05409e-14 8.54338e-13 -2.36948e-13 74.6766 51.4415 -13.8531 -18.7209 -11.4379 35.8091 0.00188714 -0.565331 -0.0794346 -8.5471e-10 -2.46387e-10 6.28212e-10 -1.47232e-09 -4.2598e-10 1.09249e-09 -8.54703e-10 -2.46385e-10 6.28198e-10 7.73091 5.47488 0.417314 -8.5471e-10 -2.46386e-10 6.28215e-10 2.90554 0.965183 0.102902 -8.54705e-10 -2.46384e-10 6.2821e-10 10.2786 0.731801 0.0259123 -8.54713e-10 -2.4638e-10 6.28213e-10 2.22167 -0.733487 -0.20892 2.03573e-14 8.54338e-13 -2.37197e-13 -56.2822 40.9004 -9.99 21.7882 -15.4102 -43.4078 0.107083 9.22683 -1.30843 -1.73005e-09 -1.51304e-09 1.08172e-09 -2.98563e-09 -2.6131e-09 1.87939e-09 -1.73006e-09 -1.51305e-09 1.08172e-09 -7.73091 5.47488 -0.417314 -1.73006e-09 -1.51305e-09 1.08172e-09 -2.90554 0.965183 -0.102902 -1.73006e-09 -1.51305e-09 1.08172e-09 -10.2786 0.731801 -0.0259123 -1.73005e-09 -1.51304e-09 1.08171e-09 -2.22167 -0.733487 0.20892 -2.03217e-16 0.0 -3.88251e-19 11.5698 -23.0525 19.2215 0.0559937 7.00799 0.102799 -4.4894 -7.90428 -31.0357 2.03217e-16 0.0 3.88251e-19 -8.42023 -20.7121 -22.7161 0.0432262 9.51642 -0.112932 -6.41221 -40.6415 -8.76178
